<?xml version="1.0" encoding="utf-8"?>
<!-- Generator: Adobe Illustrator 13.0.0, SVG Export Plug-In . SVG Version: 6.00 Build 14948)  -->
<!DOCTYPE svg PUBLIC "-//W3C//DTD SVG 1.1//EN" "http://www.w3.org/Graphics/SVG/1.1/DTD/svg11.dtd">
<svg version="1.1" id="Layer_1" xmlns="http://www.w3.org/2000/svg" xmlns:xlink="http://www.w3.org/1999/xlink" x="0px" y="0px"
	 width="330.256px" height="48.891px" viewBox="0 0 330.256 48.891" enable-background="new 0 0 330.256 48.891"
	 xml:space="preserve">
<g>
	<polygon fill="#7E2E29" points="156.943,0.918 172.408,0.918 154.199,17.38 165.174,17.297 144.638,33.759 154.615,33.759 
		127.428,48.891 138.735,36.419 131.917,36.419 148.172,20.165 137.82,20.165 	"/>
	<polygon fill="#FFFF00" points="156.025,0 171.49,0 153.282,16.462 164.256,16.379 143.721,32.841 153.698,32.841 126.51,47.973 
		137.817,35.501 131,35.501 147.254,19.247 136.903,19.247 	"/>
</g>
<g>
	<path fill="#FFFFFF" d="M0,5.793h6.93c2.788,0,4.931,0.331,6.428,0.992s2.68,1.677,3.549,3.046
		c0.868,1.371,1.302,2.892,1.302,4.564c0,1.562-0.38,2.983-1.142,4.266c-0.761,1.282-1.878,2.322-3.353,3.118
		c1.826,0.622,3.232,1.35,4.217,2.187c0.984,0.836,1.75,1.849,2.299,3.035c0.548,1.188,0.822,2.473,0.822,3.859
		c0,2.82-1.032,5.205-3.095,7.156c-2.063,1.953-4.831,2.928-8.304,2.928H0V5.793z M3.441,9.234V20.49h2.012
		c2.442,0,4.238-0.227,5.388-0.681c1.149-0.454,2.06-1.171,2.73-2.151c0.671-0.979,1.006-2.067,1.006-3.262
		c0-1.609-0.563-2.871-1.688-3.788c-1.125-0.916-2.917-1.374-5.376-1.374H3.441z M3.441,24.026v13.477h4.357
		c2.569,0,4.452-0.25,5.649-0.752s2.158-1.287,2.884-2.354s1.089-2.223,1.089-3.465c0-1.561-0.51-2.924-1.531-4.086
		c-1.021-1.164-2.424-1.96-4.21-2.39c-1.198-0.287-3.281-0.43-6.25-0.43H3.441z"/>
	<path fill="#FFFFFF" d="M44.746,4.909c5.324,0,9.78,1.776,13.367,5.329c3.586,3.553,5.38,7.926,5.38,13.119
		c0,5.146-1.79,9.511-5.369,13.095c-3.579,3.584-7.942,5.377-13.091,5.377c-5.213,0-9.613-1.783-13.2-5.354
		c-3.586-3.568-5.38-7.885-5.38-12.951c0-3.377,0.817-6.508,2.451-9.391c1.634-2.883,3.861-5.142,6.683-6.775
		C38.409,5.726,41.461,4.909,44.746,4.909z M44.901,8.326c-2.601,0-5.066,0.678-7.396,2.033c-2.33,1.355-4.149,3.181-5.458,5.477
		c-1.308,2.296-1.962,4.854-1.962,7.676c0,4.178,1.448,7.706,4.344,10.583c2.896,2.879,6.387,4.316,10.472,4.316
		c2.728,0,5.253-0.66,7.575-1.984c2.322-1.322,4.133-3.133,5.433-5.428c1.301-2.297,1.951-4.848,1.951-7.654
		c0-2.79-0.65-5.313-1.951-7.569c-1.3-2.256-3.131-4.061-5.493-5.417S47.55,8.326,44.901,8.326z"/>
	<path fill="#FFFFFF" d="M70.542,40.944V5.793h7.289c5.257,0,9.072,0.422,11.446,1.266c3.409,1.195,6.073,3.266,7.993,6.213
		s2.88,6.46,2.88,10.538c0,3.522-0.761,6.62-2.282,9.295c-1.521,2.678-3.497,4.652-5.926,5.926
		c-2.43,1.275-5.835,1.912-10.216,1.912H70.542z M73.912,37.624h4.062c4.859,0,8.229-0.303,10.108-0.908
		c2.644-0.859,4.723-2.406,6.237-4.645c1.514-2.236,2.271-4.969,2.271-8.201c0-3.391-0.821-6.288-2.461-8.691
		c-1.641-2.403-3.927-4.051-6.858-4.942c-2.198-0.668-5.823-1.003-10.873-1.003h-2.485V37.624z"/>
	<path fill="#FFFFFF" d="M104.188,5.793h4.042l8.994,14.497l8.853-14.497h4.062l-11.136,18.352v16.799h-3.465V24.146L104.188,5.793z
		"/>
</g>
<g>
	<path fill="#FFFFFF" d="M171.105,34.397l2.987-1.793c2.103,3.871,4.532,5.807,7.288,5.807c1.18,0,2.286-0.273,3.322-0.824
		c1.035-0.549,1.824-1.285,2.365-2.209s0.812-1.904,0.812-2.939c0-1.18-0.398-2.334-1.195-3.465
		c-1.099-1.562-3.105-3.442-6.021-5.641c-2.932-2.214-4.756-3.815-5.473-4.803c-1.242-1.657-1.863-3.449-1.863-5.377
		c0-1.529,0.366-2.923,1.1-4.182c0.732-1.258,1.764-2.25,3.094-2.975s2.775-1.087,4.338-1.087c1.656,0,3.205,0.41,4.647,1.23
		c1.441,0.821,2.967,2.33,4.576,4.528l-2.868,2.175c-1.322-1.752-2.449-2.907-3.381-3.465s-1.947-0.836-3.047-0.836
		c-1.418,0-2.576,0.43-3.477,1.29c-0.9,0.86-1.35,1.92-1.35,3.178c0,0.765,0.158,1.506,0.477,2.223
		c0.319,0.717,0.9,1.498,1.745,2.342c0.462,0.446,1.976,1.617,4.54,3.513c3.043,2.246,5.13,4.246,6.262,5.998
		c1.131,1.752,1.695,3.514,1.695,5.281c0,2.549-0.967,4.764-2.902,6.643c-1.936,1.881-4.289,2.82-7.062,2.82
		c-2.136,0-4.071-0.57-5.808-1.709S172.571,37.073,171.105,34.397z"/>
	<path fill="#FFFFFF" d="M195.623,9.234V5.793h19.261v3.441h-7.838v31.71h-3.585V9.234H195.623z"/>
	<path fill="#FFFFFF" d="M236.689,4.909c5.324,0,9.779,1.776,13.366,5.329c3.587,3.553,5.38,7.926,5.38,13.119
		c0,5.146-1.789,9.511-5.368,13.095s-7.942,5.377-13.091,5.377c-5.213,0-9.613-1.783-13.2-5.354
		c-3.587-3.568-5.38-7.885-5.38-12.951c0-3.377,0.816-6.508,2.451-9.391c1.634-2.883,3.861-5.142,6.684-6.775
		C230.352,5.726,233.404,4.909,236.689,4.909z M236.845,8.326c-2.601,0-5.066,0.678-7.396,2.033
		c-2.33,1.355-4.149,3.181-5.458,5.477c-1.308,2.296-1.962,4.854-1.962,7.676c0,4.178,1.447,7.706,4.344,10.583
		c2.896,2.879,6.387,4.316,10.472,4.316c2.728,0,5.253-0.66,7.575-1.984c2.321-1.322,4.133-3.133,5.433-5.428
		c1.301-2.297,1.951-4.848,1.951-7.654c0-2.79-0.65-5.313-1.951-7.569c-1.3-2.256-3.132-4.061-5.493-5.417
		S239.493,8.326,236.845,8.326z"/>
	<path fill="#FFFFFF" d="M262.677,5.793h7.001c3.903,0,6.549,0.16,7.934,0.479c2.088,0.479,3.784,1.503,5.09,3.074
		c1.307,1.571,1.96,3.505,1.96,5.803c0,1.914-0.45,3.597-1.351,5.048c-0.899,1.452-2.186,2.548-3.859,3.29
		c-1.672,0.742-3.982,1.121-6.93,1.137l12.642,16.321h-4.346l-12.642-16.321h-1.986v16.321h-3.513V5.793z M266.189,9.234v11.948
		l6.056,0.048c2.345,0,4.081-0.223,5.206-0.669c1.125-0.446,2.002-1.159,2.633-2.139c0.63-0.979,0.945-2.075,0.945-3.286
		c0-1.179-0.319-2.25-0.957-3.214c-0.639-0.964-1.477-1.653-2.514-2.067c-1.037-0.414-2.761-0.621-5.17-0.621H266.189z"/>
	<path fill="#FFFFFF" d="M290.588,40.944l5.032-35.151h0.571l14.29,28.842l14.152-28.842h0.563l5.059,35.151h-3.445l-3.473-25.139
		l-12.43,25.139h-0.897l-12.577-25.33l-3.453,25.33H290.588z"/>
</g>
</svg>
