<?xml version="1.0" encoding="utf-8"?>
<!-- Generator: Adobe Illustrator 13.0.0, SVG Export Plug-In . SVG Version: 6.00 Build 14948)  -->
<!DOCTYPE svg PUBLIC "-//W3C//DTD SVG 1.1//EN" "http://www.w3.org/Graphics/SVG/1.1/DTD/svg11.dtd">
<svg version="1.1" id="Layer_1" xmlns="http://www.w3.org/2000/svg" xmlns:xlink="http://www.w3.org/1999/xlink" x="0px" y="0px"
	 width="368.504px" height="85.039px" viewBox="0 0 368.504 85.039" enable-background="new 0 0 368.504 85.039"
	 xml:space="preserve">
<rect width="368.504" height="85.039"/>
<polygon fill="#7E2E29" points="184.062,4.719 209.332,4.719 179.578,31.619 197.512,31.483 163.955,58.383 180.258,58.383 
	135.832,83.109 154.308,62.73 143.168,62.73 169.729,36.17 152.814,36.17 "/>
<polygon fill="#FFFF00" points="182.562,3.219 207.832,3.219 178.078,30.119 196.012,29.983 162.455,56.883 178.758,56.883 
	134.332,81.609 152.809,61.23 141.668,61.23 168.229,34.67 151.314,34.67 "/>
<g>
	<path fill="#FFFFFF" d="M10.373,24.512h6.93c2.788,0,4.931,0.331,6.428,0.992s2.68,1.677,3.549,3.046
		c0.868,1.371,1.302,2.892,1.302,4.564c0,1.562-0.38,2.983-1.142,4.266c-0.761,1.282-1.878,2.322-3.353,3.118
		c1.826,0.622,3.232,1.35,4.217,2.187c0.984,0.836,1.75,1.848,2.299,3.036c0.548,1.186,0.822,2.473,0.822,3.859
		c0,2.818-1.032,5.205-3.095,7.156s-4.831,2.928-8.304,2.928h-9.654V24.512z M13.814,27.953v11.255h2.012
		c2.442,0,4.238-0.227,5.388-0.681c1.149-0.454,2.06-1.171,2.73-2.151c0.671-0.979,1.006-2.067,1.006-3.262
		c0-1.609-0.563-2.871-1.688-3.788c-1.125-0.916-2.917-1.374-5.376-1.374H13.814z M13.814,42.745v13.478h4.357
		c2.569,0,4.452-0.252,5.649-0.752c1.197-0.502,2.158-1.287,2.884-2.355c0.726-1.066,1.089-2.221,1.089-3.465
		c0-1.561-0.51-2.922-1.531-4.086c-1.021-1.162-2.424-1.959-4.21-2.389c-1.198-0.287-3.281-0.43-6.25-0.43H13.814z"/>
	<path fill="#FFFFFF" d="M55.119,23.628c5.324,0,9.78,1.776,13.367,5.329c3.586,3.553,5.38,7.926,5.38,13.119
		c0,5.147-1.79,9.51-5.369,13.096c-3.579,3.584-7.942,5.375-13.091,5.375c-5.213,0-9.613-1.783-13.2-5.352
		c-3.586-3.568-5.38-7.887-5.38-12.952c0-3.377,0.817-6.508,2.451-9.391c1.634-2.883,3.861-5.142,6.683-6.775
		C48.782,24.444,51.834,23.628,55.119,23.628z M55.274,27.045c-2.601,0-5.066,0.678-7.396,2.033
		c-2.33,1.355-4.149,3.181-5.458,5.477c-1.308,2.296-1.962,4.854-1.962,7.676c0,4.177,1.448,7.705,4.344,10.583
		c2.896,2.877,6.387,4.316,10.472,4.316c2.728,0,5.253-0.662,7.575-1.984c2.322-1.324,4.133-3.133,5.433-5.43
		c1.301-2.295,1.951-4.846,1.951-7.653c0-2.79-0.65-5.313-1.951-7.569c-1.3-2.256-3.131-4.061-5.493-5.417
		S57.923,27.045,55.274,27.045z"/>
	<path fill="#FFFFFF" d="M80.915,59.664V24.512h7.289c5.257,0,9.072,0.422,11.446,1.266c3.409,1.195,6.073,3.266,7.993,6.213
		s2.88,6.46,2.88,10.538c0,3.521-0.761,6.619-2.282,9.296c-1.521,2.676-3.497,4.65-5.926,5.926
		c-2.43,1.275-5.835,1.912-10.216,1.912H80.915z M84.285,56.342h4.062c4.859,0,8.229-0.303,10.108-0.906
		c2.644-0.861,4.723-2.408,6.237-4.645s2.271-4.971,2.271-8.202c0-3.391-0.821-6.288-2.461-8.691
		c-1.641-2.403-3.927-4.051-6.858-4.942c-2.198-0.668-5.823-1.003-10.873-1.003h-2.485V56.342z"/>
	<path fill="#FFFFFF" d="M114.561,24.512h4.042l8.994,14.497l8.853-14.497h4.062l-11.136,18.352v16.8h-3.465v-16.8L114.561,24.512z"
		/>
</g>
<g>
	<path fill="#FFFFFF" d="M199.979,53.115l2.987-1.791c2.103,3.871,4.532,5.807,7.288,5.807c1.18,0,2.286-0.275,3.322-0.824
		c1.035-0.551,1.824-1.287,2.365-2.211s0.812-1.904,0.812-2.939c0-1.178-0.398-2.334-1.195-3.465
		c-1.099-1.561-3.105-3.441-6.021-5.64c-2.932-2.214-4.756-3.815-5.473-4.803c-1.242-1.657-1.863-3.449-1.863-5.377
		c0-1.529,0.366-2.923,1.1-4.182c0.732-1.258,1.764-2.25,3.094-2.975s2.775-1.087,4.338-1.087c1.656,0,3.205,0.41,4.647,1.23
		c1.441,0.821,2.967,2.33,4.576,4.528l-2.868,2.175c-1.322-1.752-2.449-2.907-3.381-3.465s-1.947-0.836-3.047-0.836
		c-1.418,0-2.576,0.43-3.477,1.29c-0.9,0.86-1.35,1.92-1.35,3.178c0,0.765,0.158,1.506,0.477,2.223
		c0.319,0.717,0.9,1.498,1.745,2.342c0.462,0.446,1.976,1.617,4.54,3.513c3.043,2.246,5.13,4.245,6.262,5.997
		c1.131,1.754,1.695,3.514,1.695,5.281c0,2.551-0.967,4.764-2.902,6.645c-1.936,1.879-4.289,2.818-7.062,2.818
		c-2.136,0-4.071-0.568-5.808-1.707S201.444,55.793,199.979,53.115z"/>
	<path fill="#FFFFFF" d="M224.496,27.953v-3.441h19.261v3.441h-7.838v31.711h-3.585V27.953H224.496z"/>
	<path fill="#FFFFFF" d="M265.562,23.628c5.324,0,9.779,1.776,13.366,5.329c3.587,3.553,5.38,7.926,5.38,13.119
		c0,5.147-1.789,9.51-5.368,13.096c-3.579,3.584-7.942,5.375-13.091,5.375c-5.213,0-9.613-1.783-13.2-5.352s-5.38-7.887-5.38-12.952
		c0-3.377,0.816-6.508,2.451-9.391c1.634-2.883,3.861-5.142,6.684-6.775C259.225,24.444,262.277,23.628,265.562,23.628z
		 M265.718,27.045c-2.601,0-5.066,0.678-7.396,2.033c-2.33,1.355-4.149,3.181-5.458,5.477c-1.308,2.296-1.962,4.854-1.962,7.676
		c0,4.177,1.447,7.705,4.344,10.583c2.896,2.877,6.387,4.316,10.472,4.316c2.728,0,5.253-0.662,7.575-1.984
		c2.321-1.324,4.133-3.133,5.433-5.43c1.301-2.295,1.951-4.846,1.951-7.653c0-2.79-0.65-5.313-1.951-7.569
		c-1.3-2.256-3.132-4.061-5.493-5.417S268.366,27.045,265.718,27.045z"/>
	<path fill="#FFFFFF" d="M291.55,24.512h7.001c3.903,0,6.549,0.16,7.934,0.479c2.088,0.479,3.784,1.503,5.09,3.074
		c1.307,1.571,1.96,3.505,1.96,5.803c0,1.914-0.45,3.597-1.351,5.048c-0.899,1.452-2.186,2.548-3.859,3.29
		c-1.672,0.742-3.982,1.121-6.93,1.137l12.642,16.322h-4.346l-12.642-16.322h-1.986v16.322h-3.513V24.512z M295.062,27.953v11.948
		l6.056,0.048c2.345,0,4.081-0.223,5.206-0.669c1.125-0.446,2.002-1.159,2.633-2.139c0.63-0.979,0.945-2.075,0.945-3.286
		c0-1.179-0.319-2.25-0.957-3.214c-0.639-0.964-1.477-1.653-2.514-2.067c-1.037-0.414-2.761-0.621-5.17-0.621H295.062z"/>
	<path fill="#FFFFFF" d="M319.461,59.664l5.032-35.152h0.571l14.29,28.843l14.152-28.843h0.563l5.059,35.152h-3.445l-3.473-25.14
		l-12.43,25.14h-0.897l-12.577-25.331l-3.453,25.331H319.461z"/>
</g>
</svg>
